<svg width="1773" height="510" viewBox="0 0 1773 510" fill="none" xmlns="http://www.w3.org/2000/svg">
<rect width="1773" height="510" fill="white"/>
<mask id="path-1-inside-1_1_15" fill="white">
<path d="M476.727 293C476.727 261.438 469.207 230.324 454.78 202.202C440.353 174.08 419.431 149.748 393.722 131.197C368.014 112.645 338.25 100.4 306.864 95.4623C275.478 90.5249 243.361 93.0355 213.139 102.789C182.917 112.542 155.448 129.261 132.978 151.579C110.508 173.896 93.6751 201.179 83.8554 231.197C74.0357 261.214 71.5081 293.113 76.4791 324.287C81.4502 355.46 93.7788 385.023 112.457 410.557L275.364 293H476.727Z"/>
</mask>
<path d="M476.727 293C476.727 261.438 469.207 230.324 454.78 202.202C440.353 174.08 419.431 149.748 393.722 131.197C368.014 112.645 338.25 100.4 306.864 95.4623C275.478 90.5249 243.361 93.0355 213.139 102.789C182.917 112.542 155.448 129.261 132.978 151.579C110.508 173.896 93.6751 201.179 83.8554 231.197C74.0357 261.214 71.5081 293.113 76.4791 324.287C81.4502 355.46 93.7788 385.023 112.457 410.557L275.364 293H476.727Z" stroke="black" stroke-width="2" mask="url(#path-1-inside-1_1_15)"/>
<mask id="path-2-inside-2_1_15" fill="white">
<path d="M476.727 293C476.727 261.438 469.207 230.324 454.78 202.202C440.353 174.08 419.431 149.748 393.722 131.197C368.014 112.645 338.25 100.4 306.864 95.4623C275.478 90.5249 243.361 93.0355 213.139 102.789C182.917 112.542 155.448 129.261 132.978 151.579C110.508 173.896 93.6751 201.179 83.8554 231.197C74.0357 261.214 71.5081 293.113 76.4791 324.287C81.4502 355.46 93.7788 385.023 112.457 410.557L275.364 293H476.727Z"/>
</mask>
<path d="M476.727 293C476.727 261.438 469.207 230.324 454.78 202.202C440.353 174.08 419.431 149.748 393.722 131.197C368.014 112.645 338.25 100.4 306.864 95.4623C275.478 90.5249 243.361 93.0355 213.139 102.789C182.917 112.542 155.448 129.261 132.978 151.579C110.508 173.896 93.6751 201.179 83.8554 231.197C74.0357 261.214 71.5081 293.113 76.4791 324.287C81.4502 355.46 93.7788 385.023 112.457 410.557L275.364 293H476.727Z" stroke="#BAA085" stroke-width="2" mask="url(#path-2-inside-2_1_15)"/>
<ellipse cx="275.364" cy="293" rx="40.2727" ry="40" fill="#2E3748"/>
<ellipse cx="275.364" cy="93" rx="40.2727" ry="40" fill="#BAA085"/>
<ellipse cx="476.727" cy="293" rx="40.2727" ry="40" fill="#BAA085"/>
<ellipse cx="124.341" cy="403" rx="40.2727" ry="40" fill="#BAA085"/>
<path d="M630.44 294.64V298H607.28V294.64L613.88 293.8C614.76 293.64 615.4 293.48 615.8 293.32C616.2 293.08 616.56 292.56 616.88 291.76C617.2 290.96 617.64 289.68 618.2 287.92L641.12 216.4H651.44L674.48 287.92C675.04 289.68 675.48 290.96 675.8 291.76C676.12 292.56 676.48 293.08 676.88 293.32C677.36 293.48 678 293.64 678.8 293.8L685.4 294.64V298H652.28V294.64L658.88 293.8C660.16 293.64 660.84 293.32 660.92 292.84C661.08 292.28 660.72 290.64 659.84 287.92L655.28 273.04H627.56L622.88 287.92C622.08 290.64 621.72 292.28 621.8 292.84C621.88 293.32 622.56 293.64 623.84 293.8L630.44 294.64ZM629 268.84H653.96L641.6 229L629 268.84ZM714.761 275.32L706.481 273.4C701.121 272.12 697.121 269.84 694.481 266.56C691.921 263.2 690.641 259.24 690.641 254.68C690.641 251.32 691.361 248.24 692.801 245.44C694.321 242.56 696.681 240.28 699.881 238.6C703.081 236.84 707.241 235.96 712.361 235.96C717.881 235.96 722.361 236.84 725.801 238.6C729.241 240.36 731.681 242.68 733.121 245.56C734.561 248.44 735.001 251.52 734.441 254.8L721.241 257.2C722.361 251.76 722.041 247.56 720.281 244.6C718.601 241.64 715.761 240.16 711.761 240.16C708.961 240.16 706.641 241 704.801 242.68C702.961 244.28 702.041 246.6 702.041 249.64C702.041 252.44 702.841 254.92 704.441 257.08C706.041 259.16 708.401 260.56 711.521 261.28L719.801 263.2C725.721 264.56 730.001 266.72 732.641 269.68C735.281 272.56 736.601 276.16 736.601 280.48C736.601 285.84 734.601 290.32 730.601 293.92C726.681 297.44 720.801 299.2 712.961 299.2C710.241 299.2 707.241 298.8 703.961 298C700.761 297.12 697.801 295.56 695.081 293.32C692.441 291.08 690.521 287.88 689.321 283.72L697.121 280.6C697.681 285.88 699.481 289.6 702.521 291.76C705.641 293.92 709.121 295 712.961 295C716.561 295 719.481 294.2 721.721 292.6C724.041 290.92 725.201 288.52 725.201 285.4C725.201 283.24 724.441 281.28 722.921 279.52C721.481 277.68 718.761 276.28 714.761 275.32ZM772.417 275.32L764.137 273.4C758.777 272.12 754.777 269.84 752.137 266.56C749.577 263.2 748.297 259.24 748.297 254.68C748.297 251.32 749.017 248.24 750.457 245.44C751.977 242.56 754.337 240.28 757.537 238.6C760.737 236.84 764.897 235.96 770.017 235.96C775.537 235.96 780.017 236.84 783.457 238.6C786.897 240.36 789.337 242.68 790.777 245.56C792.217 248.44 792.657 251.52 792.097 254.8L778.897 257.2C780.017 251.76 779.697 247.56 777.937 244.6C776.257 241.64 773.417 240.16 769.417 240.16C766.617 240.16 764.297 241 762.457 242.68C760.617 244.28 759.697 246.6 759.697 249.64C759.697 252.44 760.497 254.92 762.097 257.08C763.697 259.16 766.057 260.56 769.177 261.28L777.457 263.2C783.377 264.56 787.657 266.72 790.297 269.68C792.937 272.56 794.257 276.16 794.257 280.48C794.257 285.84 792.257 290.32 788.257 293.92C784.337 297.44 778.457 299.2 770.617 299.2C767.897 299.2 764.897 298.8 761.617 298C758.417 297.12 755.457 295.56 752.737 293.32C750.097 291.08 748.177 287.88 746.977 283.72L754.777 280.6C755.337 285.88 757.137 289.6 760.177 291.76C763.297 293.92 766.777 295 770.617 295C774.217 295 777.137 294.2 779.377 292.6C781.697 290.92 782.857 288.52 782.857 285.4C782.857 283.24 782.097 281.28 780.577 279.52C779.137 277.68 776.417 276.28 772.417 275.32ZM861.153 266.32V268.72C861.153 277.92 858.753 285.32 853.953 290.92C849.233 296.44 842.473 299.2 833.673 299.2C824.873 299.2 818.073 296.44 813.273 290.92C808.553 285.32 806.193 277.92 806.193 268.72V266.32C806.193 257.12 808.553 249.76 813.273 244.24C818.073 238.72 824.873 235.96 833.673 235.96C842.473 235.96 849.233 238.72 853.953 244.24C858.753 249.76 861.153 257.12 861.153 266.32ZM846.393 263.92C846.393 255.36 845.313 249.28 843.153 245.68C840.993 242 837.833 240.16 833.673 240.16C829.593 240.16 826.433 242 824.193 245.68C822.033 249.28 820.953 255.36 820.953 263.92V271.12C820.953 279.6 822.033 285.72 824.193 289.48C826.433 293.16 829.593 295 833.673 295C837.833 295 840.993 293.16 843.153 289.48C845.313 285.72 846.393 279.6 846.393 271.12V263.92ZM899.856 240.16C896.016 240.16 893.136 242 891.216 245.68C889.376 249.28 888.456 255.36 888.456 263.92V271.12C888.456 279.6 889.536 285.72 891.696 289.48C893.856 293.16 897.376 295 902.256 295C905.856 295 908.776 294 911.016 292C913.336 289.92 914.656 286.44 914.976 281.56L922.656 283.72C921.216 289.32 918.576 293.32 914.736 295.72C910.976 298.04 906.536 299.2 901.416 299.2C892.216 299.2 885.296 296.44 880.656 290.92C876.016 285.32 873.696 277.92 873.696 268.72V266.32C873.696 257.12 875.936 249.76 880.416 244.24C884.896 238.72 891.376 235.96 899.856 235.96C905.456 235.96 910.016 237.08 913.536 239.32C917.136 241.48 919.656 244.36 921.096 247.96C922.616 251.48 923.016 255.28 922.296 259.36L909.096 261.28C909.976 254.56 909.616 249.36 908.016 245.68C906.416 242 903.696 240.16 899.856 240.16ZM946.528 226.84C944.048 226.84 942.048 226.08 940.528 224.56C939.008 222.96 938.248 220.92 938.248 218.44C938.248 215.96 939.008 213.96 940.528 212.44C942.048 210.92 944.048 210.16 946.528 210.16C948.928 210.16 950.928 210.92 952.528 212.44C954.128 213.96 954.928 215.96 954.928 218.44C954.928 220.92 954.128 222.96 952.528 224.56C950.928 226.08 948.928 226.84 946.528 226.84ZM930.448 240.52V237.16H953.488V287.92C953.488 290.64 953.608 292.28 953.848 292.84C954.088 293.32 954.848 293.64 956.128 293.8L962.728 294.64V298H930.448V294.64L937.048 293.8C938.328 293.64 939.088 293.32 939.328 292.84C939.568 292.28 939.688 290.64 939.688 287.92V247.24C939.688 244.52 939.568 242.92 939.328 242.44C939.088 241.88 938.328 241.52 937.048 241.36L930.448 240.52ZM1028.56 295C1027.28 296.2 1025.72 297.2 1023.88 298C1022.12 298.8 1019.96 299.2 1017.4 299.2C1014.12 299.2 1011.36 298.48 1009.12 297.04C1006.96 295.6 1005.52 293.56 1004.8 290.92C1002.16 293.8 999.242 295.92 996.042 297.28C992.922 298.56 989.722 299.2 986.442 299.2C980.922 299.2 976.802 297.68 974.082 294.64C971.362 291.52 970.002 287.64 970.002 283C970.002 278.28 971.722 274.48 975.162 271.6C978.602 268.64 984.682 267.16 993.402 267.16H1004.32V257.44C1004.32 250.8 1003.44 246.28 1001.68 243.88C1000 241.4 997.642 240.16 994.602 240.16C992.602 240.16 990.762 240.68 989.082 241.72C987.402 242.68 986.202 244.52 985.482 247.24C984.842 249.88 984.962 253.72 985.842 258.76L972.642 256.84C972.002 253.16 972.402 249.76 973.842 246.64C975.362 243.44 977.882 240.88 981.402 238.96C984.922 236.96 989.402 235.96 994.842 235.96C1001 235.96 1005.76 236.96 1009.12 238.96C1012.48 240.96 1014.8 243.6 1016.08 246.88C1017.44 250.16 1018.12 253.68 1018.12 257.44V285.16C1018.12 289.24 1018.48 291.8 1019.2 292.84C1019.92 293.88 1020.72 294.4 1021.6 294.4C1023.04 294.4 1024.64 293.56 1026.4 291.88L1028.56 295ZM991.722 292.84C993.802 292.84 995.842 292.32 997.842 291.28C999.922 290.16 1002.08 288.12 1004.32 285.16V271.36H995.322C991.402 271.36 988.562 272.28 986.802 274.12C985.042 275.96 984.162 278.84 984.162 282.76C984.162 285.96 984.802 288.44 986.082 290.2C987.362 291.96 989.242 292.84 991.722 292.84ZM1072.49 264.4V261.04H1106.57V264.4L1099.97 265.24C1098.69 265.4 1097.93 265.76 1097.69 266.32C1097.45 266.8 1097.33 268.4 1097.33 271.12V298H1094.09C1091.93 295.76 1089.53 293.88 1086.89 292.36C1084.73 294.28 1082.17 295.92 1079.21 297.28C1076.25 298.56 1072.65 299.2 1068.41 299.2C1061.85 299.2 1056.21 297.56 1051.49 294.28C1046.85 290.92 1043.29 286.32 1040.81 280.48C1038.33 274.56 1037.09 267.84 1037.09 260.32V252.76C1037.09 245.48 1038.33 239.04 1040.81 233.44C1043.29 227.76 1046.93 223.32 1051.73 220.12C1056.53 216.84 1062.41 215.2 1069.37 215.2C1075.93 215.2 1081.33 216.4 1085.57 218.8C1089.89 221.12 1093.05 224.24 1095.05 228.16C1097.05 232 1097.81 236.2 1097.33 240.76L1083.29 244.24C1084.17 236.24 1083.29 230.12 1080.65 225.88C1078.01 221.56 1074.09 219.4 1068.89 219.4C1057.93 219.4 1052.45 229.12 1052.45 248.56V265.72C1052.45 285.24 1058.25 295 1069.85 295C1072.41 295 1074.97 294.48 1077.53 293.44C1080.17 292.4 1082.37 290.88 1084.13 288.88V271.12C1084.13 268.4 1084.01 266.76 1083.77 266.2C1083.53 265.64 1082.77 265.32 1081.49 265.24L1072.49 264.4ZM1111.5 240.52V237.16H1133.82V247C1138.7 239.64 1144.5 235.96 1151.22 235.96C1153.7 235.96 1156.1 236.76 1158.42 238.36C1160.74 239.88 1162.66 242.76 1164.18 247L1153.5 252.76C1152.38 249.48 1151.06 247.28 1149.54 246.16C1148.1 244.96 1146.54 244.36 1144.86 244.36C1143.1 244.36 1141.38 244.92 1139.7 246.04C1138.02 247.16 1136.3 249.24 1134.54 252.28V287.92C1134.54 290.64 1134.66 292.28 1134.9 292.84C1135.14 293.32 1135.9 293.64 1137.18 293.8L1146.18 294.64V298H1111.5V294.64L1118.1 293.8C1119.38 293.64 1120.14 293.32 1120.38 292.84C1120.62 292.28 1120.74 290.64 1120.74 287.92V247.24C1120.74 244.52 1120.62 242.92 1120.38 242.44C1120.14 241.88 1119.38 241.52 1118.1 241.36L1111.5 240.52ZM1227.55 295C1226.27 296.2 1224.71 297.2 1222.87 298C1221.11 298.8 1218.95 299.2 1216.39 299.2C1213.11 299.2 1210.35 298.48 1208.11 297.04C1205.95 295.6 1204.51 293.56 1203.79 290.92C1201.15 293.8 1198.23 295.92 1195.03 297.28C1191.91 298.56 1188.71 299.2 1185.43 299.2C1179.91 299.2 1175.79 297.68 1173.07 294.64C1170.35 291.52 1168.99 287.64 1168.99 283C1168.99 278.28 1170.71 274.48 1174.15 271.6C1177.59 268.64 1183.67 267.16 1192.39 267.16H1203.31V257.44C1203.31 250.8 1202.43 246.28 1200.67 243.88C1198.99 241.4 1196.63 240.16 1193.59 240.16C1191.59 240.16 1189.75 240.68 1188.07 241.72C1186.39 242.68 1185.19 244.52 1184.47 247.24C1183.83 249.88 1183.95 253.72 1184.83 258.76L1171.63 256.84C1170.99 253.16 1171.39 249.76 1172.83 246.64C1174.35 243.44 1176.87 240.88 1180.39 238.96C1183.91 236.96 1188.39 235.96 1193.83 235.96C1199.99 235.96 1204.75 236.96 1208.11 238.96C1211.47 240.96 1213.79 243.6 1215.07 246.88C1216.43 250.16 1217.11 253.68 1217.11 257.44V285.16C1217.11 289.24 1217.47 291.8 1218.19 292.84C1218.91 293.88 1219.71 294.4 1220.59 294.4C1222.03 294.4 1223.63 293.56 1225.39 291.88L1227.55 295ZM1190.71 292.84C1192.79 292.84 1194.83 292.32 1196.83 291.28C1198.91 290.16 1201.07 288.12 1203.31 285.16V271.36H1194.31C1190.39 271.36 1187.55 272.28 1185.79 274.12C1184.03 275.96 1183.15 278.84 1183.15 282.76C1183.15 285.96 1183.79 288.44 1185.07 290.2C1186.35 291.96 1188.23 292.84 1190.71 292.84ZM1230.08 240.52V237.16H1252.4V247.12C1254.72 243.36 1257.24 240.56 1259.96 238.72C1262.68 236.88 1265.92 235.96 1269.68 235.96C1276.4 235.96 1281.72 238.64 1285.64 244C1289.64 249.28 1291.64 256.72 1291.64 266.32V268.72C1291.64 278 1289.36 285.4 1284.8 290.92C1280.24 296.44 1273.92 299.2 1265.84 299.2C1261.04 299.2 1256.8 298 1253.12 295.6V313.48C1253.12 316.2 1253.24 317.8 1253.48 318.28C1253.72 318.84 1254.48 319.2 1255.76 319.36L1264.76 320.2V323.56H1230.08V320.2L1236.68 319.36C1237.96 319.2 1238.72 318.84 1238.96 318.28C1239.2 317.8 1239.32 316.2 1239.32 313.48V247.24C1239.32 244.52 1239.2 242.92 1238.96 242.44C1238.72 241.88 1237.96 241.52 1236.68 241.36L1230.08 240.52ZM1266.56 241.24C1264.56 241.24 1262.44 242.08 1260.2 243.76C1258.04 245.36 1255.68 248.68 1253.12 253.72V289.96C1256.16 293 1259.88 294.52 1264.28 294.52C1268.76 294.52 1271.96 292.56 1273.88 288.64C1275.88 284.64 1276.88 279.2 1276.88 272.32V262.72C1276.88 255.28 1275.96 249.84 1274.12 246.4C1272.28 242.96 1269.76 241.24 1266.56 241.24ZM1370.95 294.64V298H1338.67V294.64L1345.27 293.8C1346.55 293.64 1347.31 293.32 1347.55 292.84C1347.79 292.28 1347.91 290.64 1347.91 287.92V257.68C1347.91 252.16 1347.07 248.16 1345.39 245.68C1343.79 243.12 1341.39 241.84 1338.19 241.84C1336.83 241.84 1335.23 242.2 1333.39 242.92C1331.63 243.56 1329.83 244.76 1327.99 246.52C1326.23 248.28 1324.67 250.88 1323.31 254.32V287.92C1323.31 290.64 1323.43 292.28 1323.67 292.84C1323.91 293.32 1324.67 293.64 1325.95 293.8L1332.55 294.64V298H1300.27V294.64L1306.87 293.8C1308.15 293.64 1308.91 293.32 1309.15 292.84C1309.39 292.28 1309.51 290.64 1309.51 287.92V219.28C1309.51 216.56 1309.39 214.96 1309.15 214.48C1308.91 213.92 1308.15 213.56 1306.87 213.4L1300.27 212.56V209.2H1323.31V246.52C1325.63 242.84 1328.51 240.16 1331.95 238.48C1335.47 236.8 1338.99 235.96 1342.51 235.96C1348.43 235.96 1353.11 237.84 1356.55 241.6C1359.99 245.36 1361.71 250.68 1361.71 257.56V287.92C1361.71 290.64 1361.83 292.28 1362.07 292.84C1362.31 293.32 1363.07 293.64 1364.35 293.8L1370.95 294.64ZM1405.85 264.4V259.96C1405.85 249.96 1408.25 240.8 1413.05 232.48C1417.93 224.08 1425.29 215.92 1435.13 208L1437.89 210.88C1433.41 215.04 1429.89 219.76 1427.33 225.04C1424.85 230.32 1423.09 235.92 1422.05 241.84C1421.09 247.76 1420.61 253.8 1420.61 259.96V264.4C1420.61 270.56 1421.09 276.6 1422.05 282.52C1423.09 288.44 1424.85 294.04 1427.33 299.32C1429.89 304.6 1433.41 309.32 1437.89 313.48L1435.13 316.36C1425.29 308.44 1417.93 300.28 1413.05 291.88C1408.25 283.48 1405.85 274.32 1405.85 264.4ZM1489.37 242.56H1492.73V272.44H1489.37L1486.73 262.72C1486.49 261.76 1486.21 261.08 1485.89 260.68C1485.65 260.2 1485.13 259.92 1484.33 259.84C1483.53 259.68 1482.17 259.6 1480.25 259.6H1467.89V287.92C1467.89 290.64 1468.01 292.28 1468.25 292.84C1468.49 293.32 1469.25 293.64 1470.53 293.8L1479.53 294.64V298H1444.25V294.64L1450.85 293.8C1452.13 293.64 1452.89 293.32 1453.13 292.84C1453.37 292.28 1453.49 290.64 1453.49 287.92V226.48C1453.49 223.76 1453.37 222.16 1453.13 221.68C1452.89 221.12 1452.13 220.76 1450.85 220.6L1444.25 219.76V216.4H1501.13V237.04H1497.77L1493.93 223.72C1493.69 222.76 1493.41 222.08 1493.09 221.68C1492.85 221.2 1492.33 220.92 1491.53 220.84C1490.73 220.68 1489.37 220.6 1487.45 220.6H1467.89V255.4H1480.25C1482.17 255.4 1483.53 255.36 1484.33 255.28C1485.13 255.12 1485.65 254.84 1485.89 254.44C1486.21 253.96 1486.49 253.24 1486.73 252.28L1489.37 242.56ZM1508.3 240.52V237.16H1530.62V247C1535.5 239.64 1541.3 235.96 1548.02 235.96C1550.5 235.96 1552.9 236.76 1555.22 238.36C1557.54 239.88 1559.46 242.76 1560.98 247L1550.3 252.76C1549.18 249.48 1547.86 247.28 1546.34 246.16C1544.9 244.96 1543.34 244.36 1541.66 244.36C1539.9 244.36 1538.18 244.92 1536.5 246.04C1534.82 247.16 1533.1 249.24 1531.34 252.28V287.92C1531.34 290.64 1531.46 292.28 1531.7 292.84C1531.94 293.32 1532.7 293.64 1533.98 293.8L1542.98 294.64V298H1508.3V294.64L1514.9 293.8C1516.18 293.64 1516.94 293.32 1517.18 292.84C1517.42 292.28 1517.54 290.64 1517.54 287.92V247.24C1517.54 244.52 1517.42 242.92 1517.18 242.44C1516.94 241.88 1516.18 241.52 1514.9 241.36L1508.3 240.52ZM1616.09 283.72C1614.65 289.32 1611.97 293.32 1608.05 295.72C1604.13 298.04 1599.57 299.2 1594.37 299.2C1584.77 299.2 1577.57 296.44 1572.77 290.92C1567.97 285.32 1565.57 277.92 1565.57 268.72V266.32C1565.57 257.12 1567.81 249.76 1572.29 244.24C1576.85 238.72 1583.41 235.96 1591.97 235.96C1596.77 235.96 1601.01 236.92 1604.69 238.84C1608.45 240.68 1611.37 243.36 1613.45 246.88C1615.61 250.4 1616.69 254.68 1616.69 259.72C1616.69 260.92 1616.61 262.2 1616.45 263.56C1616.37 264.92 1616.17 266.28 1615.85 267.64H1580.33V271.12C1580.33 279.6 1581.53 285.72 1583.93 289.48C1586.33 293.16 1590.21 295 1595.57 295C1599.01 295 1601.93 294 1604.33 292C1606.73 289.92 1608.09 286.44 1608.41 281.56L1616.09 283.72ZM1591.97 240.16C1588.05 240.16 1585.13 241.96 1583.21 245.56C1581.29 249.16 1580.33 255.12 1580.33 263.44H1602.05C1602.37 261.84 1602.57 260.36 1602.65 259C1602.81 257.56 1602.89 256.24 1602.89 255.04C1602.89 249.92 1601.89 246.16 1599.89 243.76C1597.89 241.36 1595.25 240.16 1591.97 240.16ZM1679.61 283.72C1678.17 289.32 1675.49 293.32 1671.57 295.72C1667.65 298.04 1663.09 299.2 1657.89 299.2C1648.29 299.2 1641.09 296.44 1636.29 290.92C1631.49 285.32 1629.09 277.92 1629.09 268.72V266.32C1629.09 257.12 1631.33 249.76 1635.81 244.24C1640.37 238.72 1646.93 235.96 1655.49 235.96C1660.29 235.96 1664.53 236.92 1668.21 238.84C1671.97 240.68 1674.89 243.36 1676.97 246.88C1679.13 250.4 1680.21 254.68 1680.21 259.72C1680.21 260.92 1680.13 262.2 1679.97 263.56C1679.89 264.92 1679.69 266.28 1679.37 267.64H1643.85V271.12C1643.85 279.6 1645.05 285.72 1647.45 289.48C1649.85 293.16 1653.73 295 1659.09 295C1662.53 295 1665.45 294 1667.85 292C1670.25 289.92 1671.61 286.44 1671.93 281.56L1679.61 283.72ZM1655.49 240.16C1651.57 240.16 1648.65 241.96 1646.73 245.56C1644.81 249.16 1643.85 255.12 1643.85 263.44H1665.57C1665.89 261.84 1666.09 260.36 1666.17 259C1666.33 257.56 1666.41 256.24 1666.41 255.04C1666.41 249.92 1665.41 246.16 1663.41 243.76C1661.41 241.36 1658.77 240.16 1655.49 240.16ZM1714.68 259.96V264.4C1714.68 274.32 1712.24 283.48 1707.36 291.88C1702.56 300.28 1695.24 308.44 1685.4 316.36L1682.64 313.48C1687.12 309.32 1690.6 304.6 1693.08 299.32C1695.64 294.04 1697.4 288.44 1698.36 282.52C1699.4 276.6 1699.92 270.56 1699.92 264.4V259.96C1699.92 253.8 1699.4 247.76 1698.36 241.84C1697.4 235.92 1695.64 230.32 1693.08 225.04C1690.6 219.76 1687.12 215.04 1682.64 210.88L1685.4 208C1695.24 215.92 1702.56 224.08 1707.36 232.48C1712.24 240.8 1714.68 249.96 1714.68 259.96Z" fill="#2E3748"/>
</svg>
